<svg width="53" height="52" viewBox="0 0 53 52" fill="none" xmlns="http://www.w3.org/2000/svg">
<rect x="1" y="0.5" width="51" height="51" rx="25.5" stroke="#D9D9D9"/>
<path d="M36.1841 32.7032C35.8212 33.5417 35.3916 34.3135 34.8937 35.0232C34.2153 35.9906 33.6598 36.6601 33.2316 37.0321C32.568 37.6424 31.8569 37.9549 31.0954 37.9727C30.5488 37.9727 29.8895 37.8172 29.1222 37.5017C28.3522 37.1875 27.6447 37.0321 26.9978 37.0321C26.3193 37.0321 25.5916 37.1875 24.8133 37.5017C24.0337 37.8172 23.4057 37.9816 22.9256 37.998C22.1954 38.0289 21.4676 37.7075 20.7411 37.0321C20.2774 36.6275 19.6974 35.9342 19.0026 34.9521C18.2572 33.9032 17.6443 32.6869 17.1642 31.3003C16.65 29.8026 16.3922 28.3523 16.3922 26.9482C16.3922 25.3398 16.7397 23.9526 17.4359 22.7901C17.983 21.8563 18.7108 21.1198 19.6217 20.5791C20.5327 20.0383 21.5169 19.7628 22.5769 19.7451C23.1569 19.7451 23.9174 19.9246 24.8626 20.2771C25.8051 20.6309 26.4102 20.8103 26.6756 20.8103C26.8739 20.8103 27.5462 20.6005 28.6859 20.1823C29.7636 19.7945 30.6732 19.6339 31.4184 19.6971C33.4376 19.8601 34.9546 20.6561 35.9633 22.0901C34.1575 23.1843 33.2642 24.7168 33.282 26.6828C33.2983 28.2142 33.8538 29.4885 34.9457 30.5004C35.4404 30.97 35.9931 31.3329 36.6078 31.5907C36.4746 31.9773 36.3337 32.3477 36.1841 32.7032ZM31.5532 14.4801C31.5532 15.6804 31.1147 16.8011 30.2406 17.8384C29.1859 19.0715 27.91 19.7841 26.5265 19.6717C26.5089 19.5277 26.4987 19.3761 26.4987 19.2169C26.4987 18.0646 27.0003 16.8315 27.8911 15.8232C28.3358 15.3127 28.9014 14.8882 29.5873 14.5496C30.2717 14.2161 30.9191 14.0316 31.528 14C31.5458 14.1605 31.5532 14.3209 31.5532 14.4801V14.4801Z" fill="black"/>
</svg>
