<svg width="16" height="16" viewBox="0 0 16 16" fill="none" xmlns="http://www.w3.org/2000/svg">
<g clip-path="url(#clip0_1_1219)">
<path d="M15.0706 12.4999C15.0706 12.8409 14.9351 13.1679 14.694 13.4091C14.4529 13.6502 14.1259 13.7856 13.7849 13.7856H2.21345C1.87246 13.7856 1.54543 13.6502 1.30431 13.4091C1.06319 13.1679 0.927734 12.8409 0.927734 12.4999V5.42849C0.927734 5.0875 1.06319 4.76047 1.30431 4.51935C1.54543 4.27823 1.87246 4.14277 2.21345 4.14277H4.78488L6.07059 2.2142H9.92773L11.2134 4.14277H13.7849C14.1259 4.14277 14.4529 4.27823 14.694 4.51935C14.9351 4.76047 15.0706 5.0875 15.0706 5.42849V12.4999Z" stroke="black" stroke-width="1.28571" stroke-linecap="round" stroke-linejoin="round"/>
<path d="M7.99916 11.2142C9.41932 11.2142 10.5706 10.0629 10.5706 8.64278C10.5706 7.22262 9.41932 6.07135 7.99916 6.07135C6.579 6.07135 5.42773 7.22262 5.42773 8.64278C5.42773 10.0629 6.579 11.2142 7.99916 11.2142Z" stroke="black" stroke-width="1.28571" stroke-linecap="round" stroke-linejoin="round"/>
</g>
<defs>
<clipPath id="clip0_1_1219">
<rect width="15.4286" height="15.4286" fill="white" transform="translate(0.285156 0.285675)"/>
</clipPath>
</defs>
</svg>
