<svg width="32" height="32" viewBox="0 0 32 32" fill="none" xmlns="http://www.w3.org/2000/svg">
<path d="M0 16C0 7.16344 7.16344 0 16 0C24.8366 0 32 7.16344 32 16C32 24.8366 24.8366 32 16 32C7.16344 32 0 24.8366 0 16Z" fill="#EB433C"/>
<g clip-path="url(#clip0_1011_3208)">
<g clip-path="url(#clip1_1011_3208)">
<path d="M16.0002 13.333V15.9997M16.0002 18.6663H16.0068M22.6668 15.9997C22.6668 19.6816 19.6821 22.6663 16.0002 22.6663C12.3183 22.6663 9.3335 19.6816 9.3335 15.9997C9.3335 12.3178 12.3183 9.33301 16.0002 9.33301C19.6821 9.33301 22.6668 12.3178 22.6668 15.9997Z" stroke="black" stroke-width="1.5" stroke-linecap="round" stroke-linejoin="round"/>
</g>
</g>
<defs>
<clipPath id="clip0_1011_3208">
<rect width="16" height="16" fill="white" transform="translate(8 8)"/>
</clipPath>
<clipPath id="clip1_1011_3208">
<rect width="16" height="16" fill="white" transform="translate(8 8)"/>
</clipPath>
</defs>
</svg>
