<svg width="53" height="52" viewBox="0 0 53 52" fill="none" xmlns="http://www.w3.org/2000/svg">
<rect x="1" y="0.5" width="51" height="51" rx="25.5" stroke="#D9D9D9"/>
<path d="M26.5 38C33.1274 38 38.5 32.6274 38.5 26C38.5 19.3726 33.1274 14 26.5 14C19.8726 14 14.5 19.3726 14.5 26C14.5 32.6274 19.8726 38 26.5 38Z" fill="#1977F3"/>
<path d="M31.1711 29.4696L31.7027 26H28.3749V23.7489C28.3749 22.8005 28.8389 21.874 30.3307 21.874H31.8444V18.9208C31.8444 18.9208 30.4708 18.6863 29.1579 18.6863C26.4173 18.6863 24.6252 20.3468 24.6252 23.3557V26H21.5775V29.4696H24.6252V37.8549C25.2361 37.9511 25.8621 38 26.5 38C27.1379 38 27.764 37.9494 28.3749 37.8549V29.4696H31.1711Z" fill="white"/>
</svg>
