<svg width="53" height="52" viewBox="0 0 53 52" fill="none" xmlns="http://www.w3.org/2000/svg">
<rect x="1" y="0.5" width="51" height="51" rx="25.5" stroke="#D9D9D9"/>
<path d="M38.5344 26.2666C38.5344 25.28 38.4524 24.56 38.2751 23.8133H26.7456V28.2666H33.5132C33.3768 29.3733 32.64 31.04 31.0026 32.1599L30.9797 32.309L34.6251 35.0687L34.8777 35.0933C37.1972 32.9999 38.5344 29.9199 38.5344 26.2666Z" fill="#4285F4"/>
<path d="M26.7456 38C30.0611 38 32.8446 36.9333 34.8776 35.0933L31.0026 32.1599C29.9657 32.8666 28.5739 33.3599 26.7456 33.3599C23.4982 33.3599 20.7421 31.2667 19.7596 28.3733L19.6156 28.3853L15.825 31.2519L15.7755 31.3866C17.7948 35.3066 21.9427 38 26.7456 38Z" fill="#34A853"/>
<path d="M19.7596 28.3733C19.5004 27.6266 19.3503 26.8266 19.3503 26C19.3503 25.1732 19.5004 24.3733 19.746 23.6266L19.7391 23.4676L15.901 20.5549L15.7755 20.6132C14.9432 22.2399 14.4656 24.0666 14.4656 26C14.4656 27.9333 14.9432 29.7599 15.7755 31.3866L19.7596 28.3733Z" fill="#FBBC05"/>
<path d="M26.7456 18.64C29.0515 18.64 30.6069 19.6133 31.4938 20.4267L34.9595 17.12C32.831 15.1867 30.0611 14 26.7456 14C21.9427 14 17.7948 16.6933 15.7755 20.6133L19.746 23.6266C20.7421 20.7333 23.4982 18.64 26.7456 18.64Z" fill="#EB4335"/>
</svg>
