<svg width="22" height="21" viewBox="0 0 22 21" fill="none" xmlns="http://www.w3.org/2000/svg">
<path d="M19.0597 12.1766C20.2536 12.3305 21.2732 13.2351 21.5387 14.4983C21.767 15.5847 21.3577 16.6593 20.5677 17.3167V19.7208C20.5677 20.4234 20.009 20.9931 19.3198 20.9931H3.72858C3.59834 21.0024 3.46892 21.0022 3.34101 20.9931H3.30233C3.23253 20.9931 3.16837 20.9837 3.10995 20.9666C1.93462 20.781 0.928875 19.8399 0.664447 18.5818C0.339646 17.0364 1.30509 15.5151 2.82083 15.1839C2.85224 15.1772 2.85224 15.1772 2.88374 15.171L11.76 13.4472L12.3065 5.08933H11.7255C11.3809 5.08933 11.1016 4.80452 11.1016 4.45318C11.1016 4.10185 11.3809 3.81703 11.7255 3.81703H12.9673C12.9709 3.817 12.9746 3.817 12.9782 3.81703H13.7339C14.561 3.81703 15.3172 3.34055 15.6871 2.58624L16.7829 0.351793C16.937 0.0375493 17.3118 -0.0898225 17.62 0.0672997C17.9282 0.224422 18.0531 0.606537 17.899 0.920781L16.8032 3.15523C16.6442 3.4796 16.4396 3.77127 16.1998 4.02385L19.0597 12.1766ZM9.99057 19.7208H19.3198V17.909L9.99057 19.7208ZM17.7707 12.2799L15.1405 4.78195C14.7059 4.98116 14.2279 5.08933 13.7339 5.08933H13.5571L13.0267 13.2012L17.7707 12.2799ZM3.08229 16.428C2.24044 16.6119 1.70422 17.4568 1.88462 18.3152C2.07886 19.2394 2.95654 19.8678 3.81677 19.7008L19.0859 16.6592C19.1034 16.6558 19.1034 16.6558 19.1208 16.652C19.9627 16.4681 20.4989 15.6232 20.3185 14.7649C20.1294 13.865 19.2701 13.2838 18.3835 13.456L3.11724 16.4208C3.09974 16.4243 3.09974 16.4243 3.08229 16.428Z" fill="black"/>
</svg>
