<svg width="10" height="11" viewBox="0 0 10 11" fill="none" xmlns="http://www.w3.org/2000/svg">
<g clip-path="url(#clip0_1142_617)">
<path d="M4.16699 5.91667C4.34593 6.15589 4.57422 6.35383 4.83639 6.49706C5.09855 6.6403 5.38845 6.72547 5.68643 6.74681C5.98441 6.76815 6.28349 6.72516 6.56339 6.62075C6.84329 6.51634 7.09746 6.35295 7.30866 6.14167L8.55866 4.89167C8.93816 4.49875 9.14814 3.9725 9.1434 3.42625C9.13865 2.88001 8.91955 2.35748 8.53328 1.97122C8.14701 1.58495 7.62449 1.36585 7.07824 1.3611C6.532 1.35635 6.00575 1.56634 5.61283 1.94584L4.89616 2.65834" stroke="#565656" stroke-width="0.833333" stroke-linecap="round" stroke-linejoin="round"/>
<path d="M5.83293 5.08334C5.65399 4.84412 5.4257 4.64618 5.16353 4.50295C4.90137 4.35972 4.61147 4.27454 4.31349 4.2532C4.01551 4.23186 3.71643 4.27485 3.43653 4.37927C3.15663 4.48368 2.90246 4.64706 2.69126 4.85834L1.44126 6.10834C1.06177 6.50126 0.851777 7.02752 0.856524 7.57376C0.861271 8.12 1.08037 8.64253 1.46664 9.0288C1.85291 9.41506 2.37543 9.63416 2.92168 9.63891C3.46792 9.64366 3.99417 9.43367 4.38709 9.05417L5.09959 8.34167" stroke="#565656" stroke-width="0.833333" stroke-linecap="round" stroke-linejoin="round"/>
</g>
<defs>
<clipPath id="clip0_1142_617">
<rect width="10" height="10" fill="white" transform="translate(0 0.5)"/>
</clipPath>
</defs>
</svg>
