<svg width="42" height="42" viewBox="0 0 42 42" fill="none" xmlns="http://www.w3.org/2000/svg">
<rect width="42" height="42" rx="4" fill="url(#paint0_linear_1142_318)"/>
<path d="M25.2498 30.149V30.1489C25.041 30.1489 24.8526 30.0262 24.7669 29.8366L24.7666 29.836L19.6492 18.3809L19.6479 18.3779L19.6479 18.3779C19.6275 18.3293 19.5796 18.2972 19.5261 18.2966L19.5245 18.2966C19.4692 18.2954 19.4177 18.3245 19.39 18.373L16.1792 24.3868C16.1792 24.3869 16.1791 24.3871 16.179 24.3872C16.0946 24.5474 15.9359 24.6515 15.7566 24.6667C15.5746 24.6846 15.3963 24.6031 15.2906 24.4535L14.846 23.8558V23.9147L14.6525 23.6138L10.7626 29.8987L10.7624 29.899C10.6072 30.1483 10.2815 30.2243 10.0323 30.0708L10.0323 30.0708C9.78192 29.9166 9.70665 29.5891 9.85988 29.3403L9.86006 29.34L13.8273 22.9302C13.8273 22.9302 13.8273 22.9302 13.8273 22.9302C13.9958 22.6579 14.2865 22.4879 14.6052 22.4739L25.2498 30.149ZM25.2498 30.149L25.2571 30.1487M25.2498 30.149L25.2571 30.1487M25.2571 30.1487C25.3241 30.1454 25.3886 30.1303 25.451 30.1024M25.2571 30.1487L25.451 30.1024M20.6 17.9473L20.6002 17.9477L25.7176 29.4039C25.8367 29.6703 25.7176 29.9832 25.451 30.1024M20.6 17.9473L25.451 30.1024M20.6 17.9473C20.4118 17.529 20.0015 17.2526 19.5421 17.2376C19.0832 17.2227 18.655 17.4691 18.4395 17.8758L15.6358 23.149L15.42 22.8617C15.4199 22.8615 15.4198 22.8614 15.4197 22.8613M20.6 17.9473L15.4197 22.8613M15.4197 22.8613C15.2299 22.6057 14.924 22.4599 14.6052 22.4739L15.4197 22.8613Z" fill="black" stroke="black" stroke-width="0.3"/>
<path d="M22.3431 24.1938C22.5711 24.3507 22.8813 24.3061 23.0562 24.0931L23.0567 24.0935L23.0641 24.0826L25.5556 20.4414C25.5844 20.4014 25.6326 20.3773 25.6841 20.3785L25.6858 20.3785C25.7321 20.3791 25.7751 20.4047 25.7979 20.4463L25.7978 20.4463L25.7995 20.4492L31.2295 29.8758C31.2296 29.876 31.2297 29.8762 31.2299 29.8764C31.3231 30.0412 31.497 30.147 31.6889 30.1489M22.3431 24.1938C22.1166 24.0383 22.0458 23.7333 22.1813 23.4937L22.1877 23.4824L22.1882 23.4827L24.6829 19.8402L24.6834 19.8396C24.9187 19.5001 25.31 19.3036 25.7232 19.3198L25.7232 19.3198C26.1349 19.3361 26.5113 19.5622 26.7185 19.9198L26.7188 19.9202L32.1494 29.3572L32.1498 29.3579C32.2938 29.6112 32.2058 29.933 31.9553 30.0796L31.9531 30.0809L31.953 30.0809C31.8747 30.125 31.7836 30.1504 31.6889 30.1489M22.3431 24.1938C22.3431 24.1938 22.3432 24.1939 22.3432 24.1939L22.4281 24.0702L22.3431 24.1938C22.3431 24.1938 22.3431 24.1938 22.3431 24.1938ZM31.6889 30.1489C31.6887 30.1489 31.6885 30.1488 31.6883 30.1488L31.6909 29.9989L31.6896 30.1489C31.6894 30.1489 31.6892 30.1489 31.6889 30.1489ZM25.7173 19.4697V19.4697V19.4697Z" fill="black" stroke="black" stroke-width="0.3"/>
<path d="M19.4044 25.2742L21.4085 26.992C21.6106 27.1742 21.9182 27.1732 22.1203 26.9908L22.1205 26.9909L22.1259 26.9855L22.1259 26.9855L22.1271 26.9843L23.6097 25.5348C23.7181 25.4393 23.7805 25.3032 23.787 25.161M19.4044 25.2742L23.787 25.161M19.4044 25.2742L17.4545 27.7697L17.4541 27.7703C17.3613 27.8879 17.222 27.9611 17.0719 27.9694L17.0493 27.9707L17.0334 27.9668M19.4044 25.2742L17.0334 27.9668M23.787 25.161C23.787 25.161 23.787 25.1611 23.787 25.1611L23.6372 25.1542L23.787 25.161ZM22.9201 24.7315H22.9166L22.8729 24.7744L21.7335 25.8919M22.9201 24.7315L12.5058 25.0963L12.6099 25.2038L12.5058 25.0963C12.2959 25.2995 12.2893 25.6337 12.4925 25.8451L12.4925 25.8451L12.4931 25.8457L13.7436 27.1318M22.9201 24.7315H22.9779H22.9791V24.8815M22.9201 24.7315C22.9038 24.745 22.8881 24.7595 22.8734 24.7749C22.8721 24.7763 22.8709 24.7776 22.8696 24.7789L22.9643 24.8677L22.9779 24.8804L22.9791 24.8815M21.7335 25.8919L19.6895 24.1277L19.6896 24.1276L19.6876 24.126C19.5797 24.0361 19.4396 23.9904 19.2989 24.0003L19.2989 24.0002L19.2939 24.0007C19.2614 24.0041 19.2294 24.0103 19.1985 24.0194V23.8619L18.931 24.1989L16.992 26.6421L15.7782 25.4424L15.7782 25.4424L15.7774 25.4416C15.5922 25.2613 15.3036 25.2404 15.0932 25.3917L15.0931 25.3917L15.0915 25.3929L14.1832 26.0643L13.255 25.108C13.255 25.108 13.2549 25.1079 13.2549 25.1079L13.2549 25.1079L13.1472 25.2123M21.7335 25.8919L21.635 25.9886L21.74 26.0957L21.838 25.9821L21.7335 25.8919ZM13.1472 25.2123C13.0014 25.0618 12.7607 25.0582 12.6101 25.204C12.4595 25.3499 12.4548 25.5894 12.6006 25.7412L13.8515 27.0277M13.1472 25.2123L14.1669 26.2629L15.1807 25.5135M13.1472 25.2123L15.1807 25.5135M13.8515 27.0277L13.7432 27.1314C13.7433 27.1315 13.7435 27.1317 13.7436 27.1318M13.8515 27.0277L13.744 27.1322L13.7436 27.1318M13.8515 27.0277C13.9832 27.1652 14.1966 27.183 14.3495 27.0703M13.7436 27.1318C13.9275 27.3236 14.2248 27.3481 14.438 27.1915M14.438 27.1915L14.4376 27.1918L14.3495 27.0703M14.438 27.1915L15.3731 26.5136M14.438 27.1915C14.4381 27.1914 14.4383 27.1912 14.4385 27.1911L14.3495 27.0703M14.3495 27.0703L15.3882 26.3174M15.3731 26.5136L15.2826 26.4239L15.3882 26.3174M15.3731 26.5136L16.6811 27.8106M15.3731 26.5136L15.4763 26.4389L15.3882 26.3174M15.3882 26.3174L16.7874 27.7047M16.6811 27.8106C16.6809 27.8103 16.6806 27.8101 16.6804 27.8099L16.7874 27.7047M16.6811 27.8106C16.7749 27.9056 16.9011 27.9605 17.0334 27.9668M16.6811 27.8106L16.6817 27.8112L16.7874 27.7047M16.7874 27.7047C16.8573 27.7758 16.9534 27.8161 17.0541 27.8173M17.0334 27.9668L17.0273 27.9652L17.0178 27.9629L17.0541 27.8173M17.0334 27.9668C17.0397 27.967 17.046 27.9672 17.0524 27.9673L17.0536 27.8596L17.0541 27.8173M17.0334 27.9668L17.0541 27.8173M15.1807 25.5135C15.3325 25.4044 15.54 25.4198 15.6728 25.5491L15.1807 25.5135ZM22.9791 24.8815H22.9779L23.253 24.7594C23.1486 24.7605 23.0502 24.8056 22.9791 24.8815Z" fill="black" stroke="black" stroke-width="0.3"/>
<path d="M23.2382 22.3217L23.1182 22.2317C22.9595 22.4433 22.9811 22.7403 23.1677 22.9269L23.1757 22.9349L23.1847 22.9416L24.5056 23.9162L24.5056 23.9163L24.5104 23.9196C24.6898 24.0414 24.9249 24.0419 25.1048 23.9211L25.624 23.5933L26.4591 25.2049C26.5355 25.3557 26.6793 25.46 26.8441 25.4863L26.8502 25.4958L26.9305 25.4964C27.0995 25.4978 27.2563 25.4174 27.3534 25.2842H27.3632L27.4044 25.2002L28.3584 23.2518C28.4274 23.1258 28.4432 22.9773 28.4008 22.8387L28.4006 22.8382C28.3578 22.6999 28.2604 22.5839 28.1293 22.5192L28.1293 22.5192L28.1272 22.5182C27.997 22.4563 27.8469 22.4475 27.7092 22.499L27.7087 22.4992C27.5749 22.5497 27.4653 22.6533 27.4083 22.7857L26.9163 23.7892L26.3006 22.5975C26.2343 22.4656 26.1148 22.3657 25.9679 22.3272M23.2382 22.3217L23.1175 22.2327C23.2752 22.0186 23.5661 21.9568 23.7979 22.0817L23.8073 22.0868L23.8158 22.0931L24.846 22.8537L25.5435 22.3922L25.548 22.3892L25.5481 22.3893C25.6736 22.3127 25.8246 22.2894 25.9679 22.3272M23.2382 22.3217C23.3509 22.1687 23.5596 22.1237 23.7268 22.2138L25.0227 23.7955C24.8935 23.8832 24.7239 23.8832 24.5947 23.7955L23.2738 22.8209C23.1398 22.6869 23.1244 22.4735 23.2382 22.3217ZM25.9679 22.3272C25.9679 22.3272 25.9678 22.3272 25.9677 22.3272L25.9298 22.4723L25.9681 22.3273C25.9681 22.3272 25.968 22.3272 25.9679 22.3272Z" fill="black" stroke="black" stroke-width="0.3"/>
<path d="M8.57864 30.1489H33.4216C33.7128 30.1489 33.951 29.9125 33.951 29.6194C33.951 29.3279 33.7131 29.09 33.4216 29.09H8.57864C8.28712 29.09 8.04922 29.3279 8.04922 29.6194C8.04922 29.9125 8.28742 30.1489 8.57864 30.1489Z" fill="black" stroke="black" stroke-width="0.3"/>
<path d="M12.4619 18.1936L12.4616 18.1936C11.4558 18.1936 10.5511 17.5879 10.1662 16.6593L12.4619 18.1936ZM12.4619 18.1936C13.8321 18.1911 14.9438 17.0808 14.945 15.7091V15.709M12.4619 18.1936L14.945 15.709M14.945 15.709C14.945 14.7045 14.3406 13.7985 13.4118 13.4136C12.483 13.0287 11.4154 13.242 10.705 13.9524L14.945 15.709ZM13.0067 17.0251L13.0064 17.0252C12.4745 17.2461 11.8608 17.1239 11.4531 16.7162C11.0456 16.3087 10.9242 15.6962 11.1441 15.1627C11.3652 14.6306 11.8845 14.2831 12.4616 14.2831C13.2489 14.2831 13.8862 14.9213 13.8862 15.7089C13.8862 16.2851 13.5396 16.8053 13.0067 17.0251ZM10.705 13.9524C9.99464 14.6627 9.78128 15.7315 10.1662 16.6592L10.705 13.9524Z" fill="black" stroke="black" stroke-width="0.3"/>
<path d="M14.4729 14.2284C14.2599 14.2267 14.0687 14.0979 13.9864 13.9018L13.9858 13.9004L13.9858 13.9004C13.9054 13.7035 13.9479 13.4777 14.0963 13.3244L14.0985 13.322L14.0986 13.3221L14.4448 12.9794L14.45 12.9742L14.4502 12.9743C14.6584 12.7876 14.9775 12.7941 15.1777 12.9925L15.1781 12.993L15.1781 12.993C15.3764 13.1913 15.3865 13.5104 15.1995 13.7205L15.1937 13.727L15.1935 13.7269L14.8473 14.0731L14.5912 14.3291V14.216C14.5528 14.2247 14.5131 14.2289 14.4729 14.2284ZM14.4729 14.2284C14.4728 14.2284 14.4727 14.2284 14.4726 14.2284L14.4744 14.0785L14.4733 14.2285C14.4731 14.2285 14.473 14.2284 14.4729 14.2284Z" fill="black" stroke="black" stroke-width="0.3"/>
<path d="M10.1058 18.5931C10.2477 18.5942 10.3832 18.538 10.4824 18.4375L10.828 18.0942L10.8281 18.0942L10.8301 18.0921C11.0313 17.8843 11.0307 17.5551 10.8305 17.3467L10.8305 17.3467L10.8284 17.3446C10.7291 17.2453 10.5938 17.1892 10.4532 17.1892C10.3121 17.1892 10.1781 17.2457 10.0791 17.3446L9.73293 17.6908L9.839 17.7969L9.73293 17.6908C9.63419 17.7895 9.57754 17.9235 9.57754 18.0636C9.57754 18.2043 9.63368 18.338 9.73205 18.4368C9.83006 18.5376 9.96458 18.5943 10.1058 18.5931ZM10.1058 18.5931C10.1052 18.5931 10.1046 18.5931 10.104 18.5931L10.1058 18.4431L10.1075 18.5931C10.107 18.5931 10.1064 18.5931 10.1058 18.5931Z" fill="black" stroke="black" stroke-width="0.3"/>
<path d="M14.8163 18.5931C14.6739 18.5943 14.54 18.5358 14.443 18.4376L14.0974 18.0956L14.053 18.0515V18.0441C13.8913 17.8363 13.906 17.5355 14.0969 17.3446L14.0969 17.3446C14.3037 17.1378 14.6393 17.1378 14.8461 17.3446L14.8461 17.3446L15.1924 17.6908L15.1929 17.6914L15.1929 17.6914C15.3432 17.8433 15.3881 18.0714 15.3052 18.2688C15.2229 18.4646 15.0316 18.5941 14.8163 18.5931ZM14.8163 18.5931C14.8158 18.5931 14.8153 18.5931 14.8148 18.5931L14.816 18.4431L14.8177 18.5931C14.8172 18.5931 14.8168 18.5931 14.8163 18.5931Z" fill="black" stroke="black" stroke-width="0.3"/>
<path d="M10.4521 14.2285C10.5935 14.2282 10.729 14.1721 10.8285 14.071L10.8286 14.071L10.8294 14.0701C11.0306 13.8623 11.03 13.5332 10.8298 13.3248L10.8298 13.3247L10.8271 13.3221L10.4809 12.9794L10.481 12.9793L10.4755 12.9743C10.2673 12.7876 9.94819 12.7941 9.74804 12.9926L9.74804 12.9926L9.7476 12.993C9.54931 13.1913 9.53923 13.5104 9.72619 13.7205L9.98825 14.015V13.9817L10.0772 14.0707C10.1756 14.1733 10.3107 14.2299 10.4521 14.2285ZM10.4521 14.2285C10.4518 14.2285 10.4516 14.2285 10.4513 14.2285V14.0785L10.453 14.2284C10.4527 14.2285 10.4524 14.2285 10.4521 14.2285Z" fill="black" stroke="black" stroke-width="0.3"/>
<path d="M11.933 12.8679C11.933 13.1592 12.1694 13.3974 12.4624 13.3974C12.6035 13.3974 12.7376 13.3409 12.8365 13.242C12.9354 13.1431 12.9919 13.009 12.9919 12.8679V12.3794C12.9919 12.0864 12.7537 11.85 12.4624 11.85C12.1697 11.85 11.933 12.0867 11.933 12.3794V12.8679Z" fill="black" stroke="black" stroke-width="0.3"/>
<path d="M11.933 19.042C11.933 19.3347 12.1697 19.5714 12.4624 19.5714C12.6035 19.5714 12.7376 19.5149 12.8365 19.416C12.9354 19.3171 12.9919 19.183 12.9919 19.042V18.5534C12.9919 18.2604 12.7537 18.024 12.4624 18.024C12.1697 18.024 11.933 18.2607 11.933 18.5534V19.042Z" fill="black" stroke="black" stroke-width="0.3"/>
<path d="M15.3052 16.2382H15.7949C16.0861 16.2382 16.3243 16.0018 16.3243 15.7088C16.3243 15.4158 16.0861 15.1793 15.7949 15.1793H15.3052C15.014 15.1793 14.7758 15.4158 14.7758 15.7088C14.7758 16.0018 15.014 16.2382 15.3052 16.2382Z" fill="black" stroke="black" stroke-width="0.3"/>
<path d="M9.13138 16.2382H9.62108C9.9123 16.2382 10.1505 16.0018 10.1505 15.7088C10.1505 15.4158 9.9123 15.1793 9.62108 15.1793H9.13138C8.84016 15.1793 8.60195 15.4158 8.60195 15.7088C8.60195 16.0018 8.84016 16.2382 9.13138 16.2382Z" fill="black" stroke="black" stroke-width="0.3"/>
<defs>
<linearGradient id="paint0_linear_1142_318" x1="21" y1="0" x2="21" y2="42" gradientUnits="userSpaceOnUse">
<stop offset="0.321867" stop-color="#B1FF73"/>
<stop offset="1" stop-color="#12FF55"/>
</linearGradient>
</defs>
</svg>
