<svg width="118" height="81" viewBox="0 0 118 81" fill="none" xmlns="http://www.w3.org/2000/svg">
<path d="M66.0726 7.54682L72.7275 6.57971L68.6625 27.6382L68.747 27.627L78.7462 5.70763L85.4011 4.74052L75.5764 34.7657L71.168 35.4086L78.6055 12.6787L78.521 12.6898L67.6885 35.9117L63.7867 36.4763L67.8349 14.2383L67.7504 14.2495L60.3129 36.9794L56.2422 37.572L66.067 7.54682H66.0726Z" fill="black"/>
<path d="M88.8749 4.23181L101.594 2.38144L100.192 6.66916L92.1405 7.83752L89.5449 15.7701L95.9465 14.8421L94.5446 19.1298L88.143 20.0578L85.1252 29.2817L93.182 28.1133L91.7801 32.401L79.0615 34.2514L88.8862 4.22622L88.8749 4.23181Z" fill="black"/>
<path d="M96.5997 24.9269L104.099 2.02366L108.761 1.34724L101.155 24.5915C100.451 26.7381 101.093 27.381 102.573 27.163C104.06 26.9506 105.203 26.0449 105.901 23.9039L113.507 0.654055L118 -3.8147e-06L110.501 22.9032C108.93 27.7052 105.659 30.7966 101.076 31.4619C96.4983 32.1271 95.0232 29.7289 96.594 24.9213L96.5997 24.9269Z" fill="black"/>
<path d="M9.82114 50.3178L16.9434 49.2836C21.6052 48.6072 23.0409 50.888 21.4644 55.6956L16.493 70.8787C14.9221 75.6807 11.7748 78.6323 7.11301 79.3088L-0.00921631 80.343L9.81551 50.3178H9.82114ZM8.43611 75.0266C9.91686 74.8086 11.0654 73.9086 11.7636 71.7675L16.8758 56.154C17.5796 54.0073 16.9377 53.3645 15.457 53.5825L13.081 53.9291L6.06016 75.3732L8.43611 75.0266Z" fill="black"/>
<path d="M27.0327 47.8189L39.7514 45.9686L38.3495 50.2563L30.2926 51.4246L27.6971 59.3572L34.0986 58.4292L32.6967 62.7169L26.2952 63.6449L23.2774 72.8688L31.3342 71.7004L29.9323 75.9882L17.2136 77.8385L27.0384 47.8133L27.0327 47.8189Z" fill="black"/>
<path d="M34.2055 68.5923L34.7685 66.8761L39.177 66.2332L38.5014 68.2904C37.7976 70.4371 38.4789 71.0687 39.9652 70.8563C41.446 70.6383 42.634 69.7327 43.3659 67.5022C44.1823 65.0145 43.7656 63.5611 41.598 61.3026C38.8336 58.3957 38.3606 56.1372 39.4867 52.7048C41.0293 47.9866 44.3455 44.8896 48.8835 44.23C53.4215 43.5703 54.7671 45.9909 53.1962 50.7929L52.7909 52.034L48.3824 52.6769L48.8891 51.1339C49.5929 48.9873 49.0074 48.2997 47.5266 48.5121C46.0402 48.7301 44.9255 49.6637 44.2555 51.7265C43.5404 53.9123 43.9965 55.3602 46.1641 57.6186C48.9285 60.5255 49.3677 62.7505 48.1459 66.4792C46.547 71.3706 43.1857 74.4732 38.6084 75.1384C34.031 75.8037 32.6403 73.3887 34.2112 68.5867L34.2055 68.5923Z" fill="black"/>
<path d="M61.7486 42.7709L68.0657 41.8541L63.0717 71.175L58.4099 71.8514L59.5134 66.0096L59.4853 66.0934L54.1872 66.8649L51.4171 72.8632L47.0931 73.4893L61.7542 42.7653L61.7486 42.7709ZM60.2678 62.102L63.0492 47.5618L62.9647 47.573L56.0733 62.7113L60.2678 62.102Z" fill="black"/>
<path d="M75.1485 40.8255L87.4843 39.0311L86.0824 43.3188L78.4084 44.4368L75.6721 52.7998L81.6908 51.9278L80.2889 56.2155L74.2702 57.0876L69.9912 70.1687L65.3294 70.8451L75.1541 40.8199L75.1485 40.8255Z" fill="black"/>
<path d="M89.7308 38.7068L94.3926 38.0304L84.5679 68.0556L79.9061 68.732L89.7308 38.7068Z" fill="black"/>
<path d="M90.0292 60.4752L95.1977 44.694C96.7685 39.892 100.169 36.7838 104.747 36.1186C109.324 35.4533 110.929 37.8348 109.352 42.6368L104.184 58.418C102.613 63.22 99.212 66.3282 94.6347 66.9935C90.0573 67.6587 88.4527 65.2773 90.0235 60.4752H90.0292ZM99.426 59.3963L104.786 43.0113C105.49 40.8647 104.82 40.1882 103.339 40.4007C101.853 40.6131 100.653 41.569 99.9552 43.7101L94.5896 60.0951C93.8859 62.2418 94.5559 62.9182 96.0366 62.7057C97.523 62.4877 98.7222 61.5374 99.4204 59.3963H99.426Z" fill="black"/>
<path d="M8.28967 12.5557L17.3318 11.0799L28.2769 25.307L18.8632 42.989L9.89429 44.2803L19.5332 25.9499L8.28967 12.5557Z" fill="black"/>
<path d="M22.4103 10.6382L31.458 9.1624L42.3976 23.384L32.9895 41.0659L24.0149 42.3573L33.6538 24.0269L22.4103 10.6382Z" fill="black"/>
<path d="M36.5365 8.71518L45.5786 7.23936L56.5238 21.4609L47.11 39.1429L38.1355 40.4398L47.78 22.1038L36.5365 8.71518Z" fill="#0FFF56"/>
</svg>
