<svg width="62" height="49" viewBox="0 0 62 49" fill="none" xmlns="http://www.w3.org/2000/svg">
<path d="M49.2923 24.4253L60 29.8234V39.7198V44.2182C57.9179 46.3174 51.0769 49.2563 40.3692 44.2182C29.6615 39.18 32.9333 42.1189 35.9077 44.2182C32.3385 44.818 24.3077 45.6576 20.7385 44.2182C16.2769 42.4188 14.4923 37.9205 9.13846 39.7198C4.85538 41.1593 2.59487 33.722 2 29.8234C4.67692 28.024 10.9231 23.1658 14.4923 18.1276C18.0615 13.0894 15.9795 10.6303 14.4923 10.0306H25.2C29.0667 10.0306 37.5138 8.77102 40.3692 3.73285C43.2246 -1.30532 47.5077 5.83209 49.2923 10.0306V18.1276V24.4253Z" stroke="black" stroke-width="3" stroke-linejoin="round"/>
<path d="M14.4923 18C10.9231 23.0382 4.67692 27.8964 2 29.6957C2.59487 33.5943 4.85538 41.0317 9.13846 39.5922C14.4923 37.7929 16.2769 42.2912 20.7385 44.0906" stroke="#B1FF73"/>
</svg>
