<svg width="27" height="19" viewBox="0 0 27 19" fill="none" xmlns="http://www.w3.org/2000/svg">
<path d="M18.0506 18.649V18.6489C17.8418 18.6489 17.6534 18.5262 17.5677 18.3366L17.5674 18.336L12.45 6.88094L12.4486 6.87791L12.4487 6.8779C12.4283 6.82932 12.3804 6.7972 12.3269 6.79664L12.3253 6.79662C12.27 6.79544 12.2185 6.82453 12.1908 6.87305L8.98002 12.8868C8.97994 12.8869 8.97986 12.8871 8.97978 12.8872C8.89539 13.0474 8.73664 13.1515 8.55742 13.1667C8.37535 13.1846 8.19709 13.1031 8.09138 12.9535L7.64674 12.3558V12.4147L7.45329 12.1138L3.56334 18.3987L3.56314 18.399C3.40798 18.6483 3.0823 18.7243 2.83305 18.5708L2.83304 18.5708C2.5827 18.4166 2.50743 18.0891 2.66067 17.8403L2.66084 17.84L6.6281 11.4302C6.6281 11.4302 6.62811 11.4302 6.62812 11.4302C6.79654 11.1579 7.08727 10.9879 7.40595 10.9739L18.0506 18.649ZM18.0506 18.649L18.0579 18.6487M18.0506 18.649L18.0579 18.6487M18.0579 18.6487C18.1248 18.6454 18.1894 18.6303 18.2517 18.6024M18.0579 18.6487L18.2517 18.6024M13.4008 6.44735L13.401 6.44771L18.5183 17.9039C18.6375 18.1703 18.5184 18.4832 18.2517 18.6024M13.4008 6.44735L18.2517 18.6024M13.4008 6.44735C13.2126 6.02897 12.8023 5.75256 12.3429 5.73765C11.884 5.72275 11.4558 5.96913 11.2403 6.37578L8.43661 11.649L8.22073 11.3617C8.22064 11.3615 8.22055 11.3614 8.22045 11.3613M13.4008 6.44735L8.22045 11.3613M8.22045 11.3613C8.03071 11.1057 7.72476 10.9599 7.40596 10.9739L8.22045 11.3613Z" fill="black" stroke="black" stroke-width="0.3"/>
<path d="M15.1439 12.6938C15.3719 12.8507 15.682 12.8061 15.857 12.5931L15.8575 12.5935L15.8649 12.5826L18.3564 8.94137C18.3852 8.90144 18.4334 8.87728 18.4849 8.8785L18.4866 8.87852C18.5329 8.87906 18.5759 8.90468 18.5987 8.94632L18.5986 8.94634L18.6003 8.94924L24.0303 18.3757C24.0304 18.376 24.0305 18.3762 24.0306 18.3764C24.1239 18.5412 24.2978 18.6469 24.4897 18.6488M15.1439 12.6938C14.9174 12.5383 14.8466 12.2333 14.9821 11.9936L14.9885 11.9824L14.9889 11.9827L17.4837 8.34024L17.4842 8.33954C17.7195 8.00005 18.1108 7.80354 18.524 7.81981L18.524 7.81981C18.9357 7.83606 19.3121 8.06216 19.5193 8.41975L19.5196 8.42015L24.9502 17.8572L24.9506 17.8579C25.0946 18.1112 25.0066 18.433 24.7561 18.5796L24.7538 18.5809L24.7538 18.5809C24.6755 18.625 24.5844 18.6504 24.4897 18.6488M15.1439 12.6938C15.1439 12.6938 15.144 12.6939 15.144 12.6939L15.2289 12.5702L15.1438 12.6938C15.1439 12.6938 15.1439 12.6938 15.1439 12.6938ZM24.4897 18.6488C24.4895 18.6488 24.4893 18.6488 24.489 18.6488L24.4917 18.4989L24.4904 18.6489C24.4902 18.6489 24.49 18.6489 24.4897 18.6488ZM18.5181 7.96969V7.96969V7.96969Z" fill="black" stroke="black" stroke-width="0.3"/>
<path d="M12.2052 13.7742L14.2092 15.492C14.4114 15.6742 14.719 15.6732 14.9211 15.4908L14.9213 15.4909L14.9267 15.4855L14.9267 15.4855L14.9278 15.4843L16.4105 14.0348C16.5189 13.9393 16.5813 13.8032 16.5878 13.661M12.2052 13.7742L16.5878 13.661M12.2052 13.7742L10.2553 16.2697L10.2549 16.2703C10.1621 16.3879 10.0228 16.4611 9.8727 16.4694L9.85006 16.4707L9.83422 16.4668M12.2052 13.7742L9.83422 16.4668M16.5878 13.661C16.5878 13.661 16.5878 13.6611 16.5878 13.6611L16.438 13.6542L16.5878 13.661ZM15.7209 13.2315H15.7174L15.6736 13.2744L14.5343 14.3919M15.7209 13.2315L5.30654 13.5963L5.4107 13.7038L5.30653 13.5963C5.09667 13.7995 5.0901 14.1337 5.29325 14.3451L5.29324 14.3451L5.29386 14.3457L6.5444 15.6318M15.7209 13.2315H15.7787H15.7799V13.3815M15.7209 13.2315C15.7045 13.245 15.6889 13.2595 15.6742 13.2749C15.6729 13.2763 15.6717 13.2776 15.6704 13.2789L15.7651 13.3677L15.7787 13.3804L15.7799 13.3815M14.5343 14.3919L12.4903 12.6277L12.4903 12.6276L12.4883 12.626C12.3805 12.5361 12.2404 12.4904 12.0997 12.5003L12.0997 12.5002L12.0947 12.5007C12.0621 12.5041 12.0302 12.5103 11.9993 12.5194V12.3619L11.7318 12.6989L9.79276 15.1421L8.579 13.9424L8.579 13.9424L8.57817 13.9416C8.39296 13.7613 8.10443 13.7404 7.89393 13.8917L7.89393 13.8917L7.89232 13.8929L6.98401 14.5643L6.05576 13.608C6.05573 13.608 6.0557 13.6079 6.05568 13.6079L6.05564 13.6079L5.948 13.7123M14.5343 14.3919L14.4358 14.4886L14.5408 14.5957L14.6388 14.4821L14.5343 14.3919ZM5.948 13.7123C5.80218 13.5618 5.56147 13.5582 5.41089 13.704C5.2603 13.8499 5.25556 14.0894 5.4014 14.2412L6.65232 15.5277M5.948 13.7123L6.96772 14.7629L7.98148 14.0135M5.948 13.7123L7.98148 14.0135M6.65232 15.5277L6.54395 15.6314C6.5441 15.6315 6.54425 15.6317 6.5444 15.6318M6.65232 15.5277L6.54478 15.6322L6.5444 15.6318M6.65232 15.5277C6.78394 15.6652 6.99735 15.683 7.15031 15.5703M6.5444 15.6318C6.72831 15.8236 7.02561 15.8481 7.23875 15.6915M7.23875 15.6915L7.23835 15.6918L7.15031 15.5703M7.23875 15.6915L8.17387 15.0136M7.23875 15.6915C7.23892 15.6914 7.23909 15.6912 7.23926 15.6911L7.15031 15.5703M7.15031 15.5703L8.189 14.8174M8.17387 15.0136L8.08338 14.9239L8.189 14.8174M8.17387 15.0136L9.4819 16.3106M8.17387 15.0136L8.27703 14.9389L8.189 14.8174M8.189 14.8174L9.58814 16.2047M9.4819 16.3106C9.48166 16.3103 9.48142 16.3101 9.48118 16.3099L9.58814 16.2047M9.4819 16.3106C9.57568 16.4056 9.70185 16.4605 9.83422 16.4668M9.4819 16.3106L9.48252 16.3112L9.58814 16.2047M9.58814 16.2047C9.65809 16.2758 9.75414 16.3161 9.85492 16.3173M9.83422 16.4668L9.82806 16.4652L9.8186 16.4629L9.85492 16.3173M9.83422 16.4668C9.84052 16.467 9.84683 16.4672 9.85316 16.4673L9.85442 16.3596L9.85492 16.3173M9.83422 16.4668L9.85492 16.3173M7.98148 14.0135C8.13325 13.9044 8.34075 13.9198 8.47355 14.0491L7.98148 14.0135ZM15.7799 13.3815H15.7787L16.0538 13.2594C15.9494 13.2605 15.851 13.3056 15.7799 13.3815Z" fill="black" stroke="black" stroke-width="0.3"/>
<path d="M16.039 10.8217L15.919 10.7317C15.7603 10.9433 15.7818 11.2402 15.9685 11.4269L15.9765 11.4349L15.9855 11.4416L17.3064 12.4162L17.3063 12.4163L17.3112 12.4196C17.4906 12.5414 17.7257 12.5419 17.9055 12.4211L18.4248 12.0933L19.2599 13.7049C19.3363 13.8557 19.4801 13.96 19.6448 13.9863L19.651 13.9958L19.7313 13.9964C19.9002 13.9978 20.0571 13.9173 20.1542 13.7842H20.164L20.2052 13.7002L21.1592 11.7518C21.2282 11.6258 21.244 11.4773 21.2016 11.3387L21.2014 11.3382C21.1586 11.1999 21.0612 11.0839 20.9301 11.0192L20.9301 11.0192L20.928 11.0182C20.7977 10.9563 20.6477 10.9475 20.51 10.9989L20.5095 10.9992C20.3757 11.0497 20.2661 11.1533 20.2091 11.2857L19.7171 12.2892L19.1014 11.0975C19.0351 10.9656 18.9156 10.8656 18.7687 10.8272M16.039 10.8217L15.9182 10.7327C16.076 10.5186 16.3669 10.4568 16.5987 10.5817L16.6081 10.5868L16.6166 10.5931L17.6468 11.3537L18.3443 10.8922L18.3488 10.8892L18.3489 10.8893C18.4744 10.8127 18.6254 10.7894 18.7687 10.8272M16.039 10.8217C16.1517 10.6687 16.3603 10.6237 16.5275 10.7138L17.8235 12.2955C17.6943 12.3832 17.5247 12.3832 17.3955 12.2955L16.0746 11.3209C15.9406 11.1869 15.9252 10.9735 16.039 10.8217ZM18.7687 10.8272C18.7686 10.8272 18.7686 10.8272 18.7685 10.8271L18.7306 10.9723L18.7689 10.8272C18.7688 10.8272 18.7688 10.8272 18.7687 10.8272Z" fill="black" stroke="black" stroke-width="0.3"/>
<path d="M1.37943 18.6489H26.2224C26.5136 18.6489 26.7518 18.4125 26.7518 18.1194C26.7518 17.8279 26.5139 17.59 26.2224 17.59H1.37943C1.0879 17.59 0.85 17.8279 0.85 18.1194C0.85 18.4125 1.0882 18.6489 1.37943 18.6489Z" fill="black" stroke="black" stroke-width="0.3"/>
<path d="M5.26264 6.6936L5.26236 6.6936C4.25659 6.6936 3.35184 6.08785 2.96701 5.15928L5.26264 6.6936ZM5.26264 6.6936C6.63287 6.69108 7.74457 5.58076 7.74583 4.20909V4.20895M5.26264 6.6936L7.74583 4.20895M7.74583 4.20895C7.74583 3.20452 7.14139 2.29845 6.21262 1.91357C5.28379 1.52867 4.21617 1.742 3.50579 2.45238L7.74583 4.20895ZM5.80748 5.52509L5.80714 5.52523C5.27527 5.74615 4.66159 5.62392 4.25385 5.21621C3.84635 4.80872 3.72494 4.19622 3.94491 3.66274C4.16601 3.1306 4.68525 2.78312 5.26236 2.78312C6.04968 2.78312 6.68695 3.42127 6.68695 4.20889C6.68695 4.78515 6.34036 5.30529 5.80748 5.52509ZM3.50579 2.45238C2.79543 3.16274 2.58206 4.23153 2.96698 5.15921L3.50579 2.45238Z" fill="black" stroke="black" stroke-width="0.3"/>
<path d="M7.27371 2.72845C7.06069 2.72667 6.8695 2.59787 6.78713 2.40178L6.78655 2.40039L6.78656 2.40039C6.70614 2.20345 6.74866 1.97774 6.89708 1.82437L6.89933 1.82205L6.89935 1.82207L7.24557 1.47941L7.25082 1.47421L7.25094 1.47435C7.45919 1.28758 7.77828 1.29407 7.97843 1.49255L7.97888 1.49299L7.97888 1.49299C8.17717 1.69129 8.18725 2.01037 8.00029 2.22049L7.99447 2.22703L7.99429 2.22685L7.64807 2.57307L7.39201 2.82914V2.71604C7.35354 2.72467 7.31388 2.7289 7.27371 2.72845ZM7.27371 2.72845C7.27362 2.72845 7.27352 2.72845 7.27343 2.72845L7.2752 2.57846L7.27403 2.72845C7.27393 2.72845 7.27382 2.72845 7.27371 2.72845Z" fill="black" stroke="black" stroke-width="0.3"/>
<path d="M2.90657 7.09307C3.04853 7.09424 3.18397 7.03795 3.28318 6.93745L3.62882 6.59417L3.62884 6.59419L3.63088 6.59208C3.83207 6.38429 3.8315 6.05512 3.63129 5.84671L3.63132 5.84669L3.62919 5.84456C3.52992 5.74529 3.39454 5.68917 3.25396 5.68917C3.11289 5.68917 2.97885 5.74565 2.87993 5.84456L2.53371 6.19078L2.63978 6.29685L2.53371 6.19078C2.43497 6.28952 2.37832 6.4235 2.37832 6.56363C2.37832 6.70428 2.43446 6.83795 2.53283 6.93678C2.63084 7.03763 2.76536 7.09425 2.90657 7.09307ZM2.90657 7.09307C2.90599 7.09306 2.90541 7.09305 2.90482 7.09305L2.90656 6.94306L2.90833 7.09305C2.90774 7.09305 2.90716 7.09306 2.90657 7.09307Z" fill="black" stroke="black" stroke-width="0.3"/>
<path d="M7.61705 7.09308C7.47465 7.09435 7.34075 7.03579 7.24378 6.93758L6.89822 6.59556L6.85374 6.55154V6.54409C6.6921 6.33631 6.70674 6.03552 6.89767 5.84459L6.89767 5.84459C7.10446 5.63779 7.44012 5.6378 7.64692 5.84458L7.64692 5.84459L7.99314 6.19081L7.99372 6.19139L7.99372 6.19139C8.144 6.34332 8.18891 6.57143 8.10599 6.76879C8.02372 6.96458 7.8324 7.09415 7.61705 7.09308ZM7.61705 7.09308C7.61656 7.09308 7.61607 7.09308 7.61559 7.09307L7.61674 6.94308L7.61851 7.09307C7.61802 7.09307 7.61753 7.09308 7.61705 7.09308Z" fill="black" stroke="black" stroke-width="0.3"/>
<path d="M3.25292 2.72846C3.39425 2.72823 3.52983 2.67215 3.62933 2.57099L3.62933 2.57099L3.63016 2.57014C3.83135 2.36235 3.83077 2.03318 3.63057 1.82477L3.6306 1.82474L3.62791 1.82207L3.28169 1.47941L3.28182 1.47928L3.27632 1.47435C3.06807 1.28758 2.74897 1.29406 2.54882 1.49256L2.54882 1.49255L2.54838 1.493C2.35009 1.6913 2.34001 2.01037 2.52697 2.2205L2.78904 2.51502V2.48173L2.87799 2.57068C2.9764 2.67329 3.1115 2.72988 3.25292 2.72846ZM3.25292 2.72846C3.25263 2.72846 3.25233 2.72846 3.25204 2.72846V2.57846L3.2538 2.72845C3.25351 2.72845 3.25321 2.72846 3.25292 2.72846Z" fill="black" stroke="black" stroke-width="0.3"/>
<path d="M4.73379 1.36794C4.73379 1.65916 4.9702 1.89737 5.26321 1.89737C5.40429 1.89737 5.53833 1.84089 5.63725 1.74198C5.73617 1.64306 5.79264 1.50901 5.79264 1.36794V0.879426C5.79264 0.586407 5.55444 0.35 5.26321 0.35C4.9705 0.35 4.73379 0.586712 4.73379 0.879426V1.36794Z" fill="black" stroke="black" stroke-width="0.3"/>
<path d="M4.73379 7.54197C4.73379 7.83468 4.9705 8.0714 5.26321 8.0714C5.40429 8.0714 5.53833 8.01492 5.63725 7.91601C5.73617 7.81709 5.79264 7.68304 5.79264 7.54197V7.05345C5.79264 6.76043 5.55444 6.52403 5.26321 6.52403C4.9705 6.52403 4.73379 6.76074 4.73379 7.05345V7.54197Z" fill="black" stroke="black" stroke-width="0.3"/>
<path d="M8.10599 4.7382H8.59569C8.88691 4.7382 9.12512 4.50179 9.12512 4.20877C9.12512 3.91575 8.88691 3.67935 8.59569 3.67935H8.10599C7.81477 3.67935 7.57656 3.91575 7.57656 4.20877C7.57656 4.50179 7.81477 4.7382 8.10599 4.7382Z" fill="black" stroke="black" stroke-width="0.3"/>
<path d="M1.93216 4.7382H2.42186C2.71308 4.7382 2.95129 4.50179 2.95129 4.20877C2.95129 3.91575 2.71308 3.67935 2.42186 3.67935H1.93216C1.64094 3.67935 1.40273 3.91575 1.40273 4.20877C1.40273 4.50179 1.64094 4.7382 1.93216 4.7382Z" fill="black" stroke="black" stroke-width="0.3"/>
</svg>
