<svg width="45" height="42" viewBox="0 0 45 42" fill="none" xmlns="http://www.w3.org/2000/svg">
<path d="M17.3844 23.1236V36.9998H27.6238V18.2188H17.3844V23.1236Z" fill="#12FF55"/>
<path d="M29.4931 27.6289H39.7346V37.0004H29.4931V27.6289Z" fill="#12FF55"/>
<path d="M38.2264 22.6201H29.4931V25.7595H39.3431L38.2264 22.6201Z" fill="#12FF55"/>
<path d="M43.2058 33.7483L41.6042 33.3037V37.0004H44.5458L43.2058 33.7483Z" fill="#12FF55"/>
<path d="M15.5145 19.0508H6.74095L5.65195 22.1902H15.5145V19.0508Z" fill="#12FF55"/>
<path d="M3.40369 33.3037L1.80208 33.7483L0.462112 37.0004H3.40369V33.3037Z" fill="#12FF55"/>
<path d="M40.6679 38.8696H0V41.322H45.0065V38.8696H40.6679Z" fill="#12FF55"/>
<path d="M18.3498 13.21L17.6245 16.3494H27.3831L26.6578 13.21H18.3498Z" fill="#12FF55"/>
<path d="M5.27298 24.0576H15.5146V37.0005H5.27298V24.0576Z" fill="#12FF55"/>
<path d="M19.0239 7.64406C19.1621 7.77805 19.2238 7.97161 19.1919 8.16091L18.675 11.1812C18.5942 11.6577 19.0941 12.0214 19.5216 11.7959L22.2335 10.3708C22.4036 10.2815 22.6078 10.2815 22.778 10.3708L25.4899 11.7959C25.9174 12.0214 26.4194 11.6577 26.3364 11.1812L25.8196 8.16091C25.7877 7.97161 25.8494 7.77806 25.9876 7.64406L28.1805 5.50644C28.5272 5.16826 28.3358 4.5791 27.8572 4.51104L24.8263 4.07075C24.637 4.0431 24.4711 3.92399 24.386 3.75171L23.029 1.00365C22.8141 0.569747 22.1952 0.569747 21.9825 1.00365L20.6255 3.75171C20.5404 3.92399 20.3766 4.0431 20.1852 4.07075L17.1543 4.51104C16.6757 4.58123 16.4843 5.16825 16.831 5.50644L19.0239 7.64406Z" fill="#12FF55"/>
</svg>
