<svg width="45" height="34" viewBox="0 0 45 34" fill="none" xmlns="http://www.w3.org/2000/svg">
<path d="M27.9396 12.7106V11.2476H29.366C29.1941 9.56884 28.4498 8.00158 27.2575 6.80923C26.0651 5.61687 24.4979 4.87259 22.8191 4.70068V6.12712H21.3561V4.70068C19.6773 4.87259 18.11 5.61687 16.9177 6.80923C15.7253 8.00158 14.9811 9.56879 14.8091 11.2476H16.2356V12.7106H14.8091C14.981 14.3894 15.7253 15.9566 16.9177 17.149C18.11 18.3414 19.6773 19.0856 21.3561 19.2575V17.8311H22.8191V19.2575C24.4978 19.0856 26.0651 18.3414 27.2575 17.149C28.4498 15.9566 29.1941 14.3894 29.366 12.7106H27.9396ZM23.5506 13.4421L18.4298 15.6366L20.6243 10.5159L25.7451 8.32138L23.5506 13.4421Z" fill="#12FF55"/>
<path d="M22.9598 11.1069L21.7381 11.63L21.2151 12.8516L22.4367 12.3285L22.9598 11.1069Z" fill="#12FF55"/>
<path d="M22.0876 0.274902C18.9842 0.274902 16.0071 1.50747 13.8124 3.7038C11.6161 5.89829 10.3835 8.87555 10.3835 11.979C10.3835 15.0824 11.6161 18.0594 13.8124 20.2542C16.0069 22.4505 18.9842 23.6831 22.0876 23.6831C25.191 23.6831 28.168 22.4505 30.3628 20.2542C32.5591 18.0597 33.7917 15.0824 33.7917 11.979C33.788 8.8756 32.5536 5.9004 30.3591 3.70754C28.1664 1.51304 25.191 0.278554 22.0876 0.274902ZM22.0876 20.7569C19.7596 20.7569 17.5267 19.8315 15.8807 18.1857C14.2349 16.5398 13.3095 14.3069 13.3095 11.9788C13.3095 9.65073 14.2349 7.41789 15.8807 5.77194C17.5266 4.12608 19.7595 3.20071 22.0876 3.20071C24.4156 3.20071 26.6485 4.12608 28.2944 5.77194C29.9403 7.4178 30.8657 9.65073 30.8657 11.9788C30.8638 14.3068 29.9367 16.5379 28.2926 18.1838C26.6468 19.8278 24.4156 20.7551 22.0876 20.7569Z" fill="#12FF55"/>
<path d="M16.1349 31.3474L21.3558 33.6681V25.126C19.9404 25.0474 18.5469 24.7402 17.2302 24.2153L16.1349 31.3474Z" fill="#12FF55"/>
<path d="M9.09054 21.1209L3.32468 18.2388L0 30.7054L7.36274 33.6497L9.09054 21.1209Z" fill="#12FF55"/>
<path d="M38.1806 33.6463L44.1955 30.638L40.0716 18.2627L34.1831 21.207L38.1806 33.6463Z" fill="#12FF55"/>
<path d="M30.4522 31.4261L36.6553 33.6828L32.5333 20.8613L32.0011 20.6254L32.003 20.6235C31.0612 21.7007 29.9529 22.6169 28.7186 23.3392L30.4522 31.4261Z" fill="#12FF55"/>
<path d="M8.8293 33.725L14.6466 31.397L15.85 23.5736C14.3979 22.7873 13.105 21.7375 12.0389 20.4775L10.5759 21.0627L8.8293 33.725Z" fill="#12FF55"/>
<path d="M27.3689 24.0249C25.9297 24.6558 24.388 25.0234 22.8189 25.1057V33.688L28.9158 31.2485L27.3689 24.0249Z" fill="#12FF55"/>
</svg>
