<svg width="42" height="40" viewBox="0 0 42 40" fill="none" xmlns="http://www.w3.org/2000/svg">
<path d="M17.0963 19.6011L15.8253 23.1425C15.7525 23.3454 15.5534 23.4794 15.3352 23.4641L9.56558 23.0736C9.17507 23.0468 8.79604 23.1731 8.50124 23.4335C8.20644 23.69 8.0265 24.0499 8.00353 24.4404C7.97673 24.8309 8.10307 25.2099 8.36341 25.5047C8.61993 25.7995 8.97981 25.9794 9.37032 26.0024L15.6377 26.4274C16.2311 26.4657 16.8437 26.3049 17.3375 25.9833C17.8391 25.6578 18.2258 25.1678 18.4248 24.605L19.2786 22.2275L17.4294 20.095C17.2993 19.9456 17.1882 19.7772 17.1002 19.6049L17.0963 19.6011Z" fill="#12FF55"/>
<rect y="35.481" width="42" height="4" rx="2" fill="#12FF55"/>
<path d="M24.7382 7.61767C26.6982 7.61767 28.2872 6.02869 28.2872 4.0686C28.2872 2.1085 26.6982 0.519531 24.7382 0.519531C22.7781 0.519531 21.1891 2.1085 21.1891 4.0686C21.1891 6.02869 22.7781 7.61767 24.7382 7.61767Z" fill="#12FF55"/>
<path d="M34.0951 13.0696C33.9841 12.748 33.7544 12.4915 33.4519 12.3461C33.1456 12.1967 32.8049 12.1776 32.4833 12.2886L29.0835 13.4716C28.8653 13.5482 28.6241 13.4602 28.5054 13.2611L27.2726 11.186C26.7941 10.3782 26.1317 9.68904 25.366 9.19132C24.8147 8.83527 24.2596 8.60938 23.7159 8.51367C23.6776 8.50601 23.6432 8.50218 23.6049 8.49453C22.3798 8.29927 21.1316 8.35287 19.895 8.6515L18.0152 9.1071C17.9807 9.11475 17.9463 9.12624 17.9157 9.13772C17.1385 9.39424 16.4953 9.72732 15.944 10.1561C15.339 10.627 14.8528 11.2166 14.5044 11.9058L13.0075 14.8538C12.8543 15.1562 12.8275 15.5008 12.9309 15.8224C13.0343 16.144 13.2601 16.4043 13.5626 16.5613C13.7425 16.6532 13.934 16.6991 14.1369 16.6991C14.6193 16.6991 15.0519 16.4349 15.2701 16.0061L16.7671 13.0582C16.9853 12.6255 17.4141 12.0053 18.6125 11.5842C18.7809 11.5267 18.9647 11.5612 19.0987 11.6799C19.2289 11.7986 19.2863 11.9785 19.248 12.1508L17.8467 18.1654C17.7395 18.621 17.8582 19.1073 18.1683 19.4595L23.1838 25.2444C23.8499 25.9948 24.3361 26.906 24.5812 27.8823C24.5812 27.8823 24.5812 27.8823 24.5812 27.8861L25.8408 33.1045C26.0054 33.7553 26.5912 34.2109 27.2612 34.2109C27.3837 34.2109 27.5062 34.1956 27.6249 34.165C28.0039 34.0692 28.3255 33.8281 28.5246 33.4911C28.7237 33.1542 28.7811 32.7599 28.6854 32.377C28.6854 32.377 28.6854 32.377 28.6854 32.3732L27.4258 27.1549C27.0659 25.7307 26.3576 24.3983 25.3852 23.2995C25.3852 23.2995 25.3852 23.2995 25.3852 23.2957L23.0153 20.5621C22.9004 20.4281 22.866 20.2405 22.9272 20.0759L25.1478 14.1072C25.2129 13.9311 25.3737 13.8086 25.5575 13.7932C25.7451 13.7779 25.9212 13.8698 26.0169 14.0268L26.415 14.693C26.7443 15.2481 27.265 15.6769 27.8699 15.9028C28.4786 16.1248 29.1486 16.1287 29.7612 15.9181L33.3179 14.6815C33.9764 14.4518 34.3287 13.7282 34.099 13.0658L34.0951 13.0696Z" fill="#12FF55"/>
</svg>
