<svg width="20" height="21" viewBox="0 0 20 21" fill="none" xmlns="http://www.w3.org/2000/svg">
<path d="M4.16661 7.16672C3.61905 7.1654 3.07662 7.26564 2.57047 7.46167C2.06432 7.65769 1.60444 7.94565 1.21726 8.30898C0.830076 8.67232 0.52322 9.10387 0.314325 9.57884C0.105429 10.0538 -0.00138682 10.5628 1.35935e-05 11.0767V11.1016C1.35935e-05 13.841 2.57428 16.5556 4.16661 18C5.78548 16.5556 8.33321 13.841 8.33321 11.1016C8.33742 10.5858 8.23271 10.0744 8.02514 9.59687C7.81757 9.11932 7.51124 8.68508 7.12385 8.31923C6.73645 7.95338 6.27566 7.66317 5.76809 7.46536C5.26052 7.26754 4.71622 7.16604 4.16661 7.16672ZM4.16661 13.1935C3.72571 13.1935 3.2947 13.0708 2.9281 12.841C2.5615 12.6111 2.27577 12.2844 2.10704 11.9021C1.93831 11.5199 1.89417 11.0993 1.98018 10.6935C2.0662 10.2877 2.27852 9.91491 2.59029 9.62234C2.90205 9.32978 3.29927 9.13054 3.7317 9.04982C4.16414 8.9691 4.61237 9.01053 5.01971 9.16886C5.42706 9.3272 5.77522 9.59533 6.02018 9.93935C6.26513 10.2834 6.39587 10.6878 6.39587 11.1016C6.4009 11.3776 6.34668 11.6517 6.23643 11.9077C6.12618 12.1636 5.96216 12.3961 5.75414 12.5913C5.54612 12.7865 5.29837 12.9404 5.02563 13.0439C4.75289 13.1474 4.46075 13.1982 4.16661 13.1935Z" fill="black"/>
<path d="M17.0832 0.500046C16.3096 0.500046 15.5678 0.785965 15.0208 1.2949C14.4738 1.80384 14.1665 2.49411 14.1665 3.21386C14.1665 5.11353 15.9695 6.98853 17.0832 8.00005C18.1968 7.0132 19.9998 5.11353 19.9998 3.21386C19.9998 2.49411 19.6925 1.80384 19.1456 1.2949C18.5986 0.785965 17.8567 0.500046 17.0832 0.500046ZM17.0832 4.66945C16.7738 4.66945 16.4713 4.58408 16.214 4.42414C15.9568 4.2642 15.7563 4.03687 15.6379 3.77089C15.5195 3.50492 15.4885 3.21225 15.5488 2.92989C15.6092 2.64753 15.7582 2.38817 15.977 2.1846C16.1958 1.98103 16.4745 1.8424 16.778 1.78624C17.0814 1.73007 17.396 1.7589 17.6818 1.86907C17.9677 1.97924 18.212 2.16581 18.3839 2.40518C18.5558 2.64455 18.6476 2.92597 18.6476 3.21386C18.6469 3.59971 18.4818 3.96956 18.1886 4.2424C17.8954 4.51523 17.4979 4.6688 17.0832 4.66945Z" fill="black"/>
<path d="M16.4866 20.4999H3.64026C3.48651 20.4999 3.33906 20.4404 3.23034 20.3343C3.12162 20.2282 3.06055 20.0843 3.06055 19.9343C3.06055 19.7843 3.12162 19.6405 3.23034 19.5344C3.33906 19.4283 3.48651 19.3687 3.64026 19.3687H16.4866C17.0766 19.3243 17.6277 19.0643 18.0297 18.6407C18.4317 18.217 18.655 17.661 18.655 17.0837C18.655 16.5063 18.4317 15.9503 18.0297 15.5266C17.6277 15.103 17.0766 14.843 16.4866 14.7986H12.1272C11.3216 14.7986 10.5489 14.4863 9.97925 13.9305C9.40957 13.3747 9.08953 12.6209 9.08953 11.8348C9.08953 11.0488 9.40957 10.2949 9.97925 9.73909C10.5489 9.18327 11.3216 8.87102 12.1272 8.87102H17.1127C17.2665 8.87102 17.4139 8.93061 17.5226 9.03668C17.6314 9.14275 17.6924 9.28662 17.6924 9.43663C17.6924 9.58664 17.6314 9.7305 17.5226 9.83657C17.4139 9.94265 17.2665 10.0022 17.1127 10.0022H12.1272C11.6291 10.0022 11.1513 10.1953 10.7991 10.539C10.4468 10.8827 10.249 11.3488 10.249 11.8348C10.249 12.3208 10.4468 12.787 10.7991 13.1306C11.1513 13.4743 11.6291 13.6674 12.1272 13.6674H16.5098C17.4385 13.6704 18.3278 14.0332 18.9823 14.676C19.6368 15.3188 20.0028 16.1889 19.9997 17.095C19.9966 18.001 19.6247 18.8688 18.9659 19.5073C18.3071 20.1459 17.4153 20.5029 16.4866 20.4999Z" fill="black"/>
</svg>
