<svg width="94" height="94" viewBox="0 0 94 94" fill="none" xmlns="http://www.w3.org/2000/svg">
<circle cx="47" cy="47" r="47" fill="#D9D9D9"/>
<path d="M59 60.5V57.5C59 55.9087 58.3679 54.3826 57.2426 53.2574C56.1174 52.1321 54.5913 51.5 53 51.5H41C39.4087 51.5 37.8826 52.1321 36.7574 53.2574C35.6321 54.3826 35 55.9087 35 57.5V60.5" stroke="#565656" stroke-width="3" stroke-linecap="round" stroke-linejoin="round"/>
<path d="M47 45.5C50.3137 45.5 53 42.8137 53 39.5C53 36.1863 50.3137 33.5 47 33.5C43.6863 33.5 41 36.1863 41 39.5C41 42.8137 43.6863 45.5 47 45.5Z" stroke="#565656" stroke-width="3" stroke-linecap="round" stroke-linejoin="round"/>
</svg>
