<svg width="27" height="30" viewBox="0 0 27 30" fill="none" xmlns="http://www.w3.org/2000/svg">
<path d="M5.79907 3.12887C7.92307 2.74141 10.5744 2.53689 13.5026 2.53689C16.4282 2.53689 19.0757 2.74015 21.1958 3.1276C21.3164 3.14919 21.5553 2.95356 21.5553 2.7846V1.22334C21.5553 0.813022 21.1996 0.644076 21.0713 0.619913C19.0946 0.224849 16.4969 0 13.5014 0C10.5059 0 7.90811 0.224853 5.93019 0.619913C5.80316 0.64405 5.44745 0.813006 5.44745 1.22334V2.84811C5.44618 3.1314 5.67967 3.15046 5.79907 3.12887Z" fill="url(#paint0_linear_70_866)"/>
<path d="M25.8858 2.57764H22.9247V3.13661C22.9247 4.27103 22.0354 5.19329 20.92 5.26191C20.9442 4.89478 20.9848 4.54164 20.995 4.15799L20.8718 4.13258C18.89 3.73879 16.3416 3.53169 13.5012 3.53169C10.6595 3.53169 8.10991 3.73876 6.12809 4.13258L6.00486 4.15799C6.01375 4.54164 6.05568 4.89478 6.07981 5.26191C4.96444 5.19331 4.07519 4.27103 4.07519 3.13661V2.57764H0V3.69554L0.0215959 3.69427C0.243905 10.3064 4.33939 14.2457 8.31442 14.2457H8.78698C9.42088 15.1883 10.1158 15.953 10.8399 16.4815C10.3698 15.9251 9.89091 15.2569 9.4895 14.5391C9.17954 14.0398 8.94198 13.5012 8.7184 13.0007C8.48974 12.5027 8.36141 11.9984 8.21153 11.5919C8.00319 10.7484 7.89267 10.1818 7.89267 10.1818C7.89267 10.1818 7.93713 10.319 8.01335 10.5604C8.09592 10.7992 8.18993 11.1498 8.34744 11.5538C8.53672 11.9425 8.70569 12.4126 8.97626 12.8775C9.24177 13.345 9.52125 13.8404 9.86932 14.2952C10.4156 15.0803 11.0571 15.7765 11.6326 16.2947C11.2946 15.7269 10.9682 15.0867 10.7065 14.4121C10.4702 13.8747 10.3101 13.3082 10.1589 12.781C10.004 12.255 9.94807 11.738 9.85534 11.315C9.76768 10.4512 9.73974 9.87314 9.73974 9.87314C9.73974 9.87314 9.76387 10.0154 9.80579 10.2657C9.85407 10.5134 9.89853 10.8742 9.99507 11.2972C10.1285 11.7101 10.2288 12.1991 10.4321 12.6959C10.629 13.1964 10.8361 13.7274 11.1168 14.2253C11.5322 15.0498 12.048 15.8057 12.5307 16.3926C12.4621 16.169 12.3923 15.9353 12.3173 15.6926C12.189 15.1896 11.9553 14.6827 11.9007 14.1314C11.8206 13.5902 11.7406 13.049 11.6644 12.5409C11.5932 12.0366 11.6072 11.5627 11.578 11.1588C11.5424 10.3483 11.5183 9.80966 11.5183 9.80966C11.5183 9.80966 11.5983 10.3432 11.7203 11.1435C11.7914 11.5424 11.827 12.0175 11.9489 12.5066C12.0747 12.9894 12.2093 13.5076 12.3427 14.0234C12.4469 14.543 12.7276 15.0105 12.8966 15.4703C12.9868 15.6838 13.0719 15.887 13.1532 16.0826L13.4975 9.80839L13.8417 16.0852C13.923 15.8883 14.0107 15.6825 14.1009 15.4704C14.2698 15.008 14.5506 14.543 14.6547 14.0222C14.7881 13.5065 14.9215 12.9907 15.0473 12.5067C15.1705 12.0176 15.2061 11.5412 15.2772 11.1436C15.3979 10.3433 15.4779 9.80973 15.4779 9.80973C15.4779 9.80973 15.4538 10.3483 15.4182 11.1588C15.3877 11.5628 15.4017 12.0366 15.3306 12.541C15.2556 13.0478 15.1743 13.589 15.093 14.1302C15.0396 14.6815 14.8059 15.1896 14.6776 15.6927C14.6039 15.9353 14.5315 16.1678 14.4655 16.3914C14.9482 15.8032 15.4627 15.0486 15.8781 14.2254C16.1576 13.7275 16.3659 13.1964 16.5628 12.6959C16.7661 12.1992 16.8664 11.7102 16.9999 11.2973C17.0977 10.8755 17.1421 10.5147 17.1891 10.2657C17.2323 10.0167 17.2577 9.87321 17.2577 9.87321C17.2577 9.87321 17.2272 10.4512 17.1409 11.3151C17.0494 11.7381 16.9922 12.2564 16.8372 12.781C16.6861 13.3082 16.5273 13.8748 16.2897 14.4121C16.028 15.088 15.7016 15.7282 15.3636 16.2948C15.9378 15.7752 16.5794 15.0804 17.1269 14.2953C17.4737 13.8405 17.7544 13.3451 18.0199 12.8776C18.2905 12.4126 18.4595 11.9439 18.6488 11.5539C18.805 11.1499 18.899 10.7993 18.9828 10.5605C19.0591 10.3191 19.1035 10.1819 19.1035 10.1819C19.1035 10.1819 18.993 10.7497 18.7847 11.592C18.6348 11.9997 18.5065 12.5028 18.2778 13.0008C18.0542 13.5013 17.8167 14.0399 17.5054 14.5392C17.1027 15.2582 16.6213 15.9264 16.1512 16.4866C16.8779 15.9569 17.574 15.1909 18.2117 14.2457H18.6843C22.6606 14.2457 26.756 10.3065 26.9784 3.69434H27V2.57643L25.8858 2.57764ZM8.10732 13.1151C4.81068 12.9702 1.35273 9.4145 1.13679 3.69408H3.01562C3.27986 5.20578 4.58069 6.36053 6.15847 6.38593C6.46209 9.11843 7.17869 11.3635 8.10732 13.1151ZM18.8952 13.1151C19.8238 11.362 20.5415 9.11856 20.8439 6.38616C22.4217 6.36075 23.7225 5.20601 23.9867 3.69431H25.8655C25.6496 9.41473 22.1892 12.97 18.8952 13.1151Z" fill="url(#paint1_linear_70_866)"/>
<path d="M15.8108 18.2625C16.2936 18.2625 16.6861 17.9601 16.6861 17.5879C16.6861 17.2132 16.2936 16.9108 15.8108 16.9108H11.1906C10.7078 16.9108 10.3166 17.2132 10.3166 17.5879C10.3166 17.9614 10.7078 18.2625 11.1906 18.2625H15.8108Z" fill="url(#paint2_linear_70_866)"/>
<path d="M19.1059 26.8096C19.0132 26.4996 18.909 26.2024 18.89 26.1477C18.5978 25.3334 18.0554 24.6462 17.3884 24.0618C16.8333 23.574 16.1841 23.17 15.8056 22.5361C15.4206 21.8882 15.272 21.1006 15.3762 20.3689C15.441 19.9129 15.6912 19.5152 15.7662 19.0706C15.7687 19.0592 15.7687 19.035 15.7713 19.0198C15.5617 19.0223 15.352 19.0249 15.1412 19.0274L13.1124 19.0376L11.8624 19.0274C11.6515 19.0249 11.4419 19.0223 11.2323 19.0198C11.2348 19.035 11.2348 19.0592 11.2374 19.0706C11.3136 19.5152 11.5626 19.9141 11.6286 20.3689C11.7328 21.1019 11.5854 21.8882 11.1993 22.5361C10.8207 23.17 10.1715 23.5753 9.61639 24.0618C8.94946 24.6462 8.40701 25.3334 8.11484 26.1477C8.10976 26.1617 8.0996 26.1909 8.08435 26.2341C9.19338 26.6101 10.7 26.9544 12.2395 27.1246C13.8364 27.2949 15.4586 27.3012 16.6692 27.2885C17.2752 27.2758 17.7821 27.2542 18.1339 27.2123C18.4871 27.1818 18.6878 27.1615 18.6878 27.1615C18.6878 27.1615 18.4858 27.1958 18.1377 27.2504C17.7897 27.3165 17.2866 27.3749 16.6781 27.4308C16.0696 27.4918 15.3607 27.5311 14.5998 27.5629C13.8338 27.587 13.0284 27.6213 12.2039 27.5807C10.5664 27.5146 8.94046 27.2568 7.73361 26.9277C7.69296 26.9176 7.66247 26.9049 7.6231 26.8922C6.70844 27.1399 6.12915 27.4422 6.12915 27.775C6.12915 28.602 9.43327 29.2703 13.5111 29.2703C17.5889 29.2703 20.893 28.602 20.893 27.775C20.8943 27.4054 20.2057 27.07 19.1056 26.8096L19.1059 26.8096Z" fill="url(#paint3_linear_70_866)"/>
<defs>
<linearGradient id="paint0_linear_70_866" x1="13.5014" y1="0" x2="13.5014" y2="3.13527" gradientUnits="userSpaceOnUse">
<stop stop-color="#F9B93D"/>
<stop offset="1" stop-color="#FF9B04"/>
</linearGradient>
<linearGradient id="paint1_linear_70_866" x1="13.5" y1="2.57643" x2="13.5" y2="16.4866" gradientUnits="userSpaceOnUse">
<stop stop-color="#F9B93D"/>
<stop offset="1" stop-color="#FF9B04"/>
</linearGradient>
<linearGradient id="paint2_linear_70_866" x1="13.5013" y1="16.9108" x2="13.5013" y2="18.2625" gradientUnits="userSpaceOnUse">
<stop stop-color="#F9B93D"/>
<stop offset="1" stop-color="#FF9B04"/>
</linearGradient>
<linearGradient id="paint3_linear_70_866" x1="13.5111" y1="19.0198" x2="13.5111" y2="29.2703" gradientUnits="userSpaceOnUse">
<stop stop-color="#F9B93D"/>
<stop offset="1" stop-color="#FF9B04"/>
</linearGradient>
</defs>
</svg>
